<svg width="24" height="24" viewBox="0 0 24 24" fill="none" xmlns="http://www.w3.org/2000/svg">
<rect width="24" height="24" fill="#F54900"/>
<path d="M20.5 8C20.9659 8 21.1989 8 21.3827 8.07612C21.6277 8.17761 21.8224 8.37229 21.9239 8.61732C22 8.80109 22 9.03406 22 9.5C22 9.96594 22 10.1989 21.9239 10.3827C21.8224 10.6277 21.6277 10.8224 21.3827 10.9239C21.1989 11 20.9659 11 20.5 11H13.5C13.5 12.1205 13.5 12.6808 13.6913 13.1905C13.715 13.2535 13.7407 13.3156 13.7685 13.3768C13.9937 13.8726 14.3898 14.2687 15.1821 15.061L19.0605 18.9395C19.3899 19.2688 19.5546 19.4335 19.6307 19.6172C19.7323 19.8623 19.7323 20.1377 19.6307 20.3828C19.5546 20.5665 19.3899 20.7312 19.0605 21.0605C18.7312 21.3899 18.5665 21.5546 18.3828 21.6307C18.1377 21.7323 17.8623 21.7323 17.6172 21.6307C17.4335 21.5546 17.2688 21.3899 16.9395 21.0605L12 16.1211L7.06055 21.0605C6.73118 21.3899 6.5665 21.5546 6.3828 21.6307C6.1377 21.7323 5.8623 21.7323 5.6172 21.6307C5.4335 21.5546 5.26882 21.3899 4.93945 21.0605C4.61009 20.7312 4.44541 20.5665 4.36929 20.3828C4.26773 20.1377 4.26773 19.8623 4.36929 19.6172C4.44541 19.4335 4.61009 19.2688 4.93945 18.9395L8.81786 15.061C9.61017 14.2687 10.0063 13.8726 10.2315 13.3768C10.2593 13.3156 10.285 13.2535 10.3087 13.1905C10.5 12.6808 10.5 12.1205 10.5 11H3.5C3.03406 11 2.80109 11 2.61732 10.9239C2.37229 10.8224 2.17761 10.6277 2.07612 10.3827C2 10.1989 2 9.96594 2 9.5C2 9.03406 2 8.80109 2.07612 8.61732C2.17761 8.37229 2.37229 8.17761 2.61732 8.07612C2.80109 8 3.03406 8 3.5 8H20.5Z" fill="white"/>
<circle cx="12" cy="4.5" r="2.5" fill="white"/>
</svg>
